<svg width="28" height="28" viewBox="0 0 28 28" fill="none" xmlns="http://www.w3.org/2000/svg">
<path d="M22.0706 9.94823C22.0706 13.2173 20.1336 16.0358 17.3455 17.3145C18.5228 16.3447 19.2726 14.8736 19.2726 13.2272C19.2726 10.335 16.9581 7.98295 14.0784 7.92432C14.0402 7.92168 14.0053 7.92168 13.9671 7.92168C13.9288 7.92168 13.8939 7.92168 13.8557 7.92432C12.7871 7.9823 11.9412 8.86644 11.9412 9.94757V20.077C11.9412 23.4324 9.21891 26.1546 5.86353 26.1546V9.94823C5.86353 5.4735 9.49233 1.8447 13.9671 1.8447C18.4418 1.8447 22.0706 5.4735 22.0706 9.94823Z" fill="black"/>
<path d="M15.3994 11.3807C16.1906 10.5896 16.1906 9.30689 15.3994 8.51574C14.6083 7.72459 13.3256 7.72459 12.5344 8.51574C11.7433 9.30689 11.7433 10.5896 12.5344 11.3807C13.3256 12.1719 14.6083 12.1719 15.3994 11.3807Z" fill="black"/>
</svg>
