<svg width="140" height="60" viewBox="0 0 140 60" fill="none" xmlns="http://www.w3.org/2000/svg">
<rect x="0.5" y="0.5" width="139" height="59" rx="4.5" stroke="#9747FF" stroke-dasharray="10 5"/>
<g clip-path="url(#clip0_43_849)">
<path d="M22.446 18.9319C22.651 18.4392 23.349 18.4392 23.554 18.9319L26.0333 24.8929C26.1197 25.1006 26.3151 25.2426 26.5393 25.2606L32.9747 25.7765C33.5067 25.8191 33.7224 26.483 33.3171 26.8302L28.414 31.0303C28.2432 31.1766 28.1685 31.4063 28.2207 31.6251L29.7187 37.905C29.8425 38.4241 29.2778 38.8344 28.8223 38.5562L23.3128 35.191C23.1207 35.0737 22.8793 35.0737 22.6872 35.191L17.1777 38.5562C16.7222 38.8344 16.1575 38.4241 16.2813 37.905L17.7793 31.6251C17.8315 31.4063 17.7568 31.1766 17.586 31.0303L12.6829 26.8302C12.2776 26.483 12.4933 25.8191 13.0253 25.7765L19.4607 25.2606C19.6849 25.2426 19.8803 25.1006 19.9667 24.8929L22.446 18.9319Z" fill="#D4D4D8"/>
</g>
<g clip-path="url(#clip1_43_849)">
<path d="M70.446 18.9319C70.651 18.4392 71.349 18.4392 71.554 18.9319L74.0333 24.8929C74.1197 25.1006 74.3151 25.2426 74.5393 25.2606L80.9747 25.7765C81.5067 25.8191 81.7224 26.483 81.3171 26.8302L76.414 31.0303C76.2432 31.1766 76.1685 31.4063 76.2207 31.6251L77.7187 37.905C77.8425 38.4241 77.2778 38.8344 76.8223 38.5562L71.3128 35.191C71.1207 35.0737 70.8793 35.0737 70.6872 35.191L65.1777 38.5562C64.7222 38.8344 64.1575 38.4241 64.2813 37.905L65.7793 31.6251C65.8315 31.4063 65.7568 31.1766 65.586 31.0303L60.6829 26.8302C60.2776 26.483 60.4933 25.8191 61.0253 25.7765L67.4607 25.2606C67.6849 25.2426 67.8803 25.1006 67.9667 24.8929L70.446 18.9319Z" fill="#D4D4D8"/>
<g clip-path="url(#clip2_43_849)">
<path d="M70.446 18.9319C70.651 18.4392 71.349 18.4392 71.554 18.9319L74.0333 24.8929C74.1197 25.1006 74.3151 25.2426 74.5393 25.2606L80.9747 25.7765C81.5067 25.8191 81.7224 26.483 81.3171 26.8302L76.414 31.0303C76.2432 31.1766 76.1685 31.4063 76.2207 31.6251L77.7187 37.905C77.8425 38.4241 77.2778 38.8344 76.8223 38.5562L71.3128 35.191C71.1207 35.0737 70.8793 35.0737 70.6872 35.191L65.1777 38.5562C64.7222 38.8344 64.1575 38.4241 64.2813 37.905L65.7793 31.6251C65.8315 31.4063 65.7568 31.1766 65.586 31.0303L60.6829 26.8302C60.2776 26.483 60.4933 25.8191 61.0253 25.7765L67.4607 25.2606C67.6849 25.2426 67.8803 25.1006 67.9667 24.8929L70.446 18.9319Z" fill="black"/>
</g>
</g>
<g clip-path="url(#clip3_43_849)">
<path d="M118.446 18.9319C118.651 18.4392 119.349 18.4392 119.554 18.9319L122.033 24.8929C122.12 25.1006 122.315 25.2426 122.539 25.2606L128.975 25.7765C129.507 25.8191 129.722 26.483 129.317 26.8302L124.414 31.0303C124.243 31.1766 124.169 31.4063 124.221 31.6251L125.719 37.905C125.843 38.4241 125.278 38.8344 124.822 38.5562L119.313 35.191C119.121 35.0737 118.879 35.0737 118.687 35.191L113.178 38.5562C112.722 38.8344 112.157 38.4241 112.281 37.905L113.779 31.6251C113.831 31.4063 113.757 31.1766 113.586 31.0303L108.683 26.8302C108.278 26.483 108.493 25.8191 109.025 25.7765L115.461 25.2606C115.685 25.2426 115.88 25.1006 115.967 24.8929L118.446 18.9319Z" fill="#F2F4F7"/>
<g clip-path="url(#clip4_43_849)">
<path d="M118.446 18.9319C118.651 18.4392 119.349 18.4392 119.554 18.9319L122.033 24.8929C122.12 25.1006 122.315 25.2426 122.539 25.2606L128.975 25.7765C129.507 25.8191 129.722 26.483 129.317 26.8302L124.414 31.0303C124.243 31.1766 124.169 31.4063 124.221 31.6251L125.719 37.905C125.843 38.4241 125.278 38.8344 124.822 38.5562L119.313 35.191C119.121 35.0737 118.879 35.0737 118.687 35.191L113.178 38.5562C112.722 38.8344 112.157 38.4241 112.281 37.905L113.779 31.6251C113.831 31.4063 113.757 31.1766 113.586 31.0303L108.683 26.8302C108.278 26.483 108.493 25.8191 109.025 25.7765L115.461 25.2606C115.685 25.2426 115.88 25.1006 115.967 24.8929L118.446 18.9319Z" fill="black"/>
</g>
</g>
<defs>
<clipPath id="clip0_43_849">
<rect width="24" height="24" fill="white" transform="translate(11 17)"/>
</clipPath>
<clipPath id="clip1_43_849">
<rect width="24" height="24" fill="white" transform="translate(59 17)"/>
</clipPath>
<clipPath id="clip2_43_849">
<rect width="12" height="24" fill="white" transform="translate(59 17)"/>
</clipPath>
<clipPath id="clip3_43_849">
<rect width="24" height="24" fill="white" transform="translate(107 17)"/>
</clipPath>
<clipPath id="clip4_43_849">
<rect width="24" height="24" fill="white" transform="translate(107 17)"/>
</clipPath>
</defs>
</svg>
